<svg width="140" height="169" viewBox="0 0 140 169" fill="none" xmlns="http://www.w3.org/2000/svg">
<path d="M35 144.833V156.917V169L0 156.917L35 144.833Z" fill="#6A6A6A"/>
<path d="M35 169V156.917L35 144.833L70 156.917L35 169Z" fill="#B1B1B1"/>
<rect y="36.0833" width="35" height="120.833" fill="#6A6A6A"/>
<rect x="35" y="36.0833" width="35" height="120.833" fill="#B1B1B1"/>
<path d="M35 24L70 36.0833L35 48.1667L0 36.0833L35 24Z" fill="#535353"/>
<path d="M35 144.833V156.917V169L0 156.917L35 144.833Z" fill="#6A6A6A"/>
<path d="M35 169V156.917L35 144.833L70 156.917L35 169Z" fill="#B1B1B1"/>
<rect y="36.0833" width="35" height="120.833" fill="#6A6A6A"/>
<rect x="35" y="36.0833" width="35" height="120.833" fill="#B1B1B1"/>
<path d="M35 24L70 36.0833L35 48.1667L0 36.0833L35 24Z" fill="#535353"/>
<path d="M105 120.833V132.917V145L70 132.917L105 120.833Z" fill="#6A6A6A"/>
<path d="M105 145V132.917V120.833L140 132.917L105 145Z" fill="#B1B1B1"/>
<rect x="70" y="12.0833" width="35" height="120.833" fill="#6A6A6A"/>
<rect x="105" y="12.0833" width="35" height="120.833" fill="#B1B1B1"/>
<path d="M105 0L140 12.0833L105 24.1667L70 12.0833L105 0Z" fill="#535353"/>
<path d="M105 120.833V132.917V145L70 132.917L105 120.833Z" fill="#6A6A6A"/>
<path d="M105 145V132.917V120.833L140 132.917L105 145Z" fill="#B1B1B1"/>
<rect x="70" y="12.0833" width="35" height="120.833" fill="#6A6A6A"/>
<rect x="105" y="12.0833" width="35" height="120.833" fill="#B1B1B1"/>
<path d="M105 0L140 12.0833L105 24.1667L70 12.0833L105 0Z" fill="#535353"/>
</svg>
